<?xml version="1.0" encoding="UTF-8"?>
<svg version="1.1" xmlns="http://www.w3.org/2000/svg" width="500" height="500">
<path d="M0 0 C165 0 330 0 500 0 C500 165 500 330 500 500 C335 500 170 500 0 500 C0 335 0 170 0 0 Z " fill="transparent" transform="translate(0,0)"/>
<path d="M0 0 C15.96635933 6.6193107 27.46857291 31.90393562 33.7890625 46.86816406 C41.84963006 66.71200868 42.73628924 88.66561138 36 109 C35.78569336 109.66193359 35.57138672 110.32386719 35.35058594 111.00585938 C29.81479696 127.84690589 20.88655737 143.64545647 8 156 C5.33333333 154.66666667 2.66666667 153.33333333 0 152 C-1.98 153.65 -3.96 155.3 -6 157 C-27.57579614 132.76689073 -39.47165309 105.56622152 -38.19091797 72.86230469 C-36.28202983 44.24362886 -19.03070529 20.2049403 0 0 Z " fill="white" transform="translate(249,148)"/>
<path d="M0 0 C6.20482206 37.28433254 3.25788558 80.29672486 -19 112 C-30.53308863 126.92386131 -47.06726667 137.31710059 -66 140 C-68.26995419 140.06652855 -70.54168695 140.08543751 -72.8125 140.0625 C-73.97394531 140.05347656 -75.13539063 140.04445313 -76.33203125 140.03515625 C-77.21246094 140.02355469 -78.09289062 140.01195312 -79 140 C-76.29482713 136.79650582 -73.607503 133.62806148 -70.69140625 130.61328125 C-52.80381927 111.94433322 -43.83313157 88.0950955 -43.75 62.375 C-43.74605225 61.31627686 -43.74210449 60.25755371 -43.73803711 59.16674805 C-43.79121625 51.99414358 -44.48291187 45.62704471 -46.44140625 38.70703125 C-47.0834376 35.59564856 -47.11029366 33.9812566 -46 31 C-44.29121486 29.05552036 -42.68438618 27.43523772 -40.75 25.75 C-40.21133301 25.27111328 -39.67266602 24.79222656 -39.11767578 24.29882812 C-33.43396573 19.34674983 -27.34992609 15.0542084 -21 11 C-20.2471875 10.51901855 -19.494375 10.03803711 -18.71875 9.54248047 C-16.27870819 7.99448119 -13.82951048 6.46244243 -11.375 4.9375 C-10.59237793 4.44765625 -9.80975586 3.9578125 -9.00341797 3.453125 C-8.26752441 3.00324219 -7.53163086 2.55335938 -6.7734375 2.08984375 C-6.11778809 1.68628662 -5.46213867 1.28272949 -4.78662109 0.86694336 C-3 0 -3 0 0 0 Z " fill="#020202" transform="translate(340,167)"/>
<path d="M0 0 C15.51916786 2.81825082 34.28261846 18.95429605 45 30 C47.46412785 33.69619178 47.00666338 34.63649014 46.1875 38.875 C45.89939453 40.41800781 45.89939453 40.41800781 45.60546875 41.9921875 C45.24723881 43.7717814 44.87728929 45.54919397 44.48144531 47.32080078 C39.8311608 73.19920961 46.87941583 98.65438729 61.4140625 120.08496094 C66.2605574 126.86806753 71.47146531 132.77717224 78 138 C78 138.66 78 139.32 78 140 C57.60344204 140.32375489 39.38741517 133.66802336 24.39599609 119.43896484 C13.50994977 108.21784609 7.03118205 92.8446846 3 78 C2.66871094 76.92492187 2.33742187 75.84984375 1.99609375 74.7421875 C-4.16810429 51.58414152 -4.33678695 23.5425577 0 0 Z " fill="#020202" transform="translate(160,167)"/>
<path d="M0 0 C0.76425293 -0.00539795 1.52850586 -0.0107959 2.31591797 -0.01635742 C7.7451014 0.05149262 12.74940143 0.95718149 18 2.3125 C14.5420903 12.10689345 7.0503464 20.62346796 0.04296875 28.11328125 C-1.69153255 29.98044039 -3.2862677 31.88567045 -4.875 33.875 C-9.00374126 38.6899898 -13.96129264 42.49605334 -19 46.3125 C-19.54269531 46.72435547 -20.08539063 47.13621094 -20.64453125 47.56054688 C-39.52364887 61.64393462 -61.80222103 68.51539452 -85.25 68.5 C-86.76992554 68.5009668 -86.76992554 68.5009668 -88.32055664 68.50195312 C-95.40374542 68.45193944 -102.0910042 67.97660221 -109 66.3125 C-109 65.9825 -109 65.6525 -109 65.3125 C-108.03320312 65.27511719 -107.06640625 65.23773438 -106.0703125 65.19921875 C-86.50667103 64.21135171 -71.28400464 57.09692501 -57.5625 42.9375 C-49.64609294 33.82801741 -43.38293764 23.03870154 -38.875 11.875 C-36.58500597 6.76260438 -36.58500597 6.76260438 -34.23828125 4.95703125 C-31.81729202 4.04858386 -29.562316 3.68155786 -27 3.3125 C-25.78183594 3.04308594 -24.56367188 2.77367187 -23.30859375 2.49609375 C-15.5469205 0.82593062 -7.93968335 0.03376918 0 0 Z " fill="#030303" transform="translate(377,246.6875)"/>
<path d="M0 0 C1.09248047 0.19601807 2.18496094 0.39203613 3.31054688 0.59399414 C4.84291992 0.90904907 4.84291992 0.90904907 6.40625 1.23046875 C7.31697266 1.41375732 8.22769531 1.5970459 9.16601562 1.78588867 C12.28775415 3.15899647 13.01475454 4.79801219 14.5 7.8125 C14.97711426 8.73409912 14.97711426 8.73409912 15.46386719 9.67431641 C15.73875977 10.24843262 16.01365234 10.82254883 16.296875 11.4140625 C26.64832063 32.75779536 39.38792172 51.19556908 62.5 59.8125 C67.72262658 61.54307449 72.49244687 62.19837598 77.9375 62.4375 C78.66904297 62.47617187 79.40058594 62.51484375 80.15429688 62.5546875 C81.93583532 62.64783984 83.71788122 62.73120286 85.5 62.8125 C73.95160404 70.03024748 50.44958344 67.04840891 37.8125 64.1875 C19.69858892 59.67277422 3.56526206 51.06511001 -10.5 38.8125 C-11.85544922 37.65621094 -11.85544922 37.65621094 -13.23828125 36.4765625 C-22.09537716 28.70975917 -29.09789733 19.86122025 -36 10.375 C-36.4338501 9.78364258 -36.8677002 9.19228516 -37.31469727 8.58300781 C-39.39083393 5.67483324 -40.77317262 3.2992943 -41.5 -0.1875 C-27.46836611 -3.73438523 -14.14284297 -2.66655764 0 0 Z " fill="#030303" transform="translate(146.5,249.1875)"/>
</svg>
